<mxfile host="app.diagrams.net" agent="Mozilla/5.0 (Windows NT 10.0; Win64; x64) AppleWebKit/537.36 (KHTML, like Gecko) Chrome/135.0.0.0 Safari/537.36" version="26.2.8">
  <diagram name="Page-1" id="8V2OFpSV-hH42i_RlWay">
    <mxGraphModel dx="1428" dy="897" grid="1" gridSize="10" guides="1" tooltips="1" connect="1" arrows="1" fold="1" page="1" pageScale="1" pageWidth="850" pageHeight="1100" math="0" shadow="0">
      <root>
        <mxCell id="0" />
        <mxCell id="1" parent="0" />
        <mxCell id="i_SbP_oBZpBZ_PZjNfhK-1" value="るーたー兼AP" style="rounded=0;whiteSpace=wrap;html=1;fillColor=#0050ef;strokeColor=#001DBC;fontColor=#ffffff;" vertex="1" parent="1">
          <mxGeometry x="170" y="280" width="120" height="60" as="geometry" />
        </mxCell>
        <mxCell id="i_SbP_oBZpBZ_PZjNfhK-5" style="edgeStyle=orthogonalEdgeStyle;rounded=0;orthogonalLoop=1;jettySize=auto;html=1;exitX=0.5;exitY=1;exitDx=0;exitDy=0;entryX=0.5;entryY=0;entryDx=0;entryDy=0;" edge="1" parent="1" source="i_SbP_oBZpBZ_PZjNfhK-3" target="i_SbP_oBZpBZ_PZjNfhK-4">
          <mxGeometry relative="1" as="geometry" />
        </mxCell>
        <mxCell id="i_SbP_oBZpBZ_PZjNfhK-10" value="1000Base-T&lt;div&gt;&lt;br&gt;&lt;/div&gt;" style="edgeLabel;html=1;align=center;verticalAlign=middle;resizable=0;points=[];" vertex="1" connectable="0" parent="i_SbP_oBZpBZ_PZjNfhK-5">
          <mxGeometry x="-0.0444" y="1" relative="1" as="geometry">
            <mxPoint as="offset" />
          </mxGeometry>
        </mxCell>
        <mxCell id="i_SbP_oBZpBZ_PZjNfhK-21" style="edgeStyle=orthogonalEdgeStyle;rounded=0;orthogonalLoop=1;jettySize=auto;html=1;exitX=1;exitY=0.5;exitDx=0;exitDy=0;entryX=0.5;entryY=0;entryDx=0;entryDy=0;" edge="1" parent="1" source="i_SbP_oBZpBZ_PZjNfhK-3" target="i_SbP_oBZpBZ_PZjNfhK-20">
          <mxGeometry relative="1" as="geometry" />
        </mxCell>
        <mxCell id="i_SbP_oBZpBZ_PZjNfhK-22" value="1000Base-T" style="edgeLabel;html=1;align=center;verticalAlign=middle;resizable=0;points=[];" vertex="1" connectable="0" parent="i_SbP_oBZpBZ_PZjNfhK-21">
          <mxGeometry x="-0.2381" y="-4" relative="1" as="geometry">
            <mxPoint as="offset" />
          </mxGeometry>
        </mxCell>
        <mxCell id="i_SbP_oBZpBZ_PZjNfhK-26" style="edgeStyle=orthogonalEdgeStyle;rounded=0;orthogonalLoop=1;jettySize=auto;html=1;exitX=0.75;exitY=0;exitDx=0;exitDy=0;dashed=1;dashPattern=8 8;" edge="1" parent="1" source="i_SbP_oBZpBZ_PZjNfhK-3" target="i_SbP_oBZpBZ_PZjNfhK-25">
          <mxGeometry relative="1" as="geometry">
            <Array as="points">
              <mxPoint x="260" y="260" />
              <mxPoint x="670" y="260" />
            </Array>
          </mxGeometry>
        </mxCell>
        <mxCell id="i_SbP_oBZpBZ_PZjNfhK-27" value="WiFi" style="edgeLabel;html=1;align=center;verticalAlign=middle;resizable=0;points=[];" vertex="1" connectable="0" parent="i_SbP_oBZpBZ_PZjNfhK-26">
          <mxGeometry x="-0.0128" y="-5" relative="1" as="geometry">
            <mxPoint as="offset" />
          </mxGeometry>
        </mxCell>
        <mxCell id="i_SbP_oBZpBZ_PZjNfhK-3" value="&lt;div&gt;NEC&lt;/div&gt;るーたー兼AP&lt;div&gt;HGW&lt;/div&gt;" style="rounded=0;whiteSpace=wrap;html=1;fillColor=#0050ef;strokeColor=#001DBC;fontColor=#ffffff;" vertex="1" parent="1">
          <mxGeometry x="170" y="280" width="120" height="60" as="geometry" />
        </mxCell>
        <mxCell id="i_SbP_oBZpBZ_PZjNfhK-15" style="edgeStyle=orthogonalEdgeStyle;rounded=0;orthogonalLoop=1;jettySize=auto;html=1;exitX=0.5;exitY=1;exitDx=0;exitDy=0;entryX=0.5;entryY=0;entryDx=0;entryDy=0;" edge="1" parent="1" source="i_SbP_oBZpBZ_PZjNfhK-4" target="i_SbP_oBZpBZ_PZjNfhK-12">
          <mxGeometry relative="1" as="geometry" />
        </mxCell>
        <mxCell id="i_SbP_oBZpBZ_PZjNfhK-16" style="edgeStyle=orthogonalEdgeStyle;rounded=0;orthogonalLoop=1;jettySize=auto;html=1;exitX=0.5;exitY=1;exitDx=0;exitDy=0;entryX=0.5;entryY=0;entryDx=0;entryDy=0;" edge="1" parent="1" source="i_SbP_oBZpBZ_PZjNfhK-4" target="i_SbP_oBZpBZ_PZjNfhK-13">
          <mxGeometry relative="1" as="geometry" />
        </mxCell>
        <mxCell id="i_SbP_oBZpBZ_PZjNfhK-17" style="edgeStyle=orthogonalEdgeStyle;rounded=0;orthogonalLoop=1;jettySize=auto;html=1;exitX=0.5;exitY=1;exitDx=0;exitDy=0;entryX=0.5;entryY=0;entryDx=0;entryDy=0;" edge="1" parent="1" source="i_SbP_oBZpBZ_PZjNfhK-4" target="i_SbP_oBZpBZ_PZjNfhK-14">
          <mxGeometry relative="1" as="geometry" />
        </mxCell>
        <mxCell id="i_SbP_oBZpBZ_PZjNfhK-19" style="edgeStyle=orthogonalEdgeStyle;rounded=0;orthogonalLoop=1;jettySize=auto;html=1;exitX=0.5;exitY=1;exitDx=0;exitDy=0;entryX=0.5;entryY=1;entryDx=0;entryDy=0;" edge="1" parent="1" source="i_SbP_oBZpBZ_PZjNfhK-4" target="i_SbP_oBZpBZ_PZjNfhK-18">
          <mxGeometry relative="1" as="geometry" />
        </mxCell>
        <mxCell id="i_SbP_oBZpBZ_PZjNfhK-4" value="1Ghub" style="rounded=0;whiteSpace=wrap;html=1;fillColor=#0050ef;strokeColor=#001DBC;fontColor=#ffffff;" vertex="1" parent="1">
          <mxGeometry x="170" y="430" width="120" height="60" as="geometry" />
        </mxCell>
        <mxCell id="i_SbP_oBZpBZ_PZjNfhK-8" style="edgeStyle=orthogonalEdgeStyle;rounded=0;orthogonalLoop=1;jettySize=auto;html=1;exitX=0.5;exitY=1;exitDx=0;exitDy=0;entryX=0.5;entryY=0;entryDx=0;entryDy=0;" edge="1" parent="1" source="i_SbP_oBZpBZ_PZjNfhK-7" target="i_SbP_oBZpBZ_PZjNfhK-3">
          <mxGeometry relative="1" as="geometry" />
        </mxCell>
        <mxCell id="i_SbP_oBZpBZ_PZjNfhK-9" value="コミュファ光1G" style="edgeLabel;html=1;align=center;verticalAlign=middle;resizable=0;points=[];" vertex="1" connectable="0" parent="i_SbP_oBZpBZ_PZjNfhK-8">
          <mxGeometry x="0.08" relative="1" as="geometry">
            <mxPoint as="offset" />
          </mxGeometry>
        </mxCell>
        <mxCell id="i_SbP_oBZpBZ_PZjNfhK-7" value="" style="image;aspect=fixed;perimeter=ellipsePerimeter;html=1;align=center;shadow=0;dashed=0;spacingTop=3;image=img/lib/active_directory/internet_globe.svg;" vertex="1" parent="1">
          <mxGeometry x="175" y="20" width="110" height="110" as="geometry" />
        </mxCell>
        <mxCell id="i_SbP_oBZpBZ_PZjNfhK-12" value="Proxmox00" style="rounded=0;whiteSpace=wrap;html=1;fillColor=#6a00ff;strokeColor=#3700CC;fontColor=#ffffff;" vertex="1" parent="1">
          <mxGeometry x="20" y="620" width="120" height="60" as="geometry" />
        </mxCell>
        <mxCell id="i_SbP_oBZpBZ_PZjNfhK-13" value="Proxmox01" style="rounded=0;whiteSpace=wrap;html=1;fillColor=#6a00ff;strokeColor=#3700CC;fontColor=#ffffff;" vertex="1" parent="1">
          <mxGeometry x="165" y="620" width="120" height="60" as="geometry" />
        </mxCell>
        <mxCell id="i_SbP_oBZpBZ_PZjNfhK-14" value="Proxmox03" style="rounded=0;whiteSpace=wrap;html=1;fillColor=#6a00ff;strokeColor=#3700CC;fontColor=#ffffff;" vertex="1" parent="1">
          <mxGeometry x="310" y="620" width="120" height="60" as="geometry" />
        </mxCell>
        <mxCell id="i_SbP_oBZpBZ_PZjNfhK-18" value="RaspberryPi" style="rounded=0;whiteSpace=wrap;html=1;fillColor=#6a00ff;strokeColor=#3700CC;fontColor=#ffffff;" vertex="1" parent="1">
          <mxGeometry x="310" y="430" width="120" height="60" as="geometry" />
        </mxCell>
        <mxCell id="i_SbP_oBZpBZ_PZjNfhK-24" style="edgeStyle=orthogonalEdgeStyle;rounded=0;orthogonalLoop=1;jettySize=auto;html=1;exitX=0.5;exitY=1;exitDx=0;exitDy=0;entryX=0.5;entryY=0;entryDx=0;entryDy=0;" edge="1" parent="1" source="i_SbP_oBZpBZ_PZjNfhK-20" target="i_SbP_oBZpBZ_PZjNfhK-23">
          <mxGeometry relative="1" as="geometry" />
        </mxCell>
        <mxCell id="i_SbP_oBZpBZ_PZjNfhK-28" style="edgeStyle=orthogonalEdgeStyle;rounded=0;orthogonalLoop=1;jettySize=auto;html=1;exitX=1;exitY=0.5;exitDx=0;exitDy=0;entryX=0.5;entryY=1;entryDx=0;entryDy=0;dashed=1;dashPattern=8 8;" edge="1" parent="1" source="i_SbP_oBZpBZ_PZjNfhK-20" target="i_SbP_oBZpBZ_PZjNfhK-25">
          <mxGeometry relative="1" as="geometry" />
        </mxCell>
        <mxCell id="i_SbP_oBZpBZ_PZjNfhK-29" value="WiFi" style="edgeLabel;html=1;align=center;verticalAlign=middle;resizable=0;points=[];" vertex="1" connectable="0" parent="i_SbP_oBZpBZ_PZjNfhK-28">
          <mxGeometry x="-0.0308" y="3" relative="1" as="geometry">
            <mxPoint as="offset" />
          </mxGeometry>
        </mxCell>
        <mxCell id="i_SbP_oBZpBZ_PZjNfhK-20" value="Buffaloのルーター&lt;div&gt;(APモード)&lt;/div&gt;" style="rounded=0;whiteSpace=wrap;html=1;fillColor=#0050ef;strokeColor=#001DBC;fontColor=#ffffff;" vertex="1" parent="1">
          <mxGeometry x="530" y="430" width="120" height="60" as="geometry" />
        </mxCell>
        <mxCell id="i_SbP_oBZpBZ_PZjNfhK-23" value="メインPC" style="rounded=0;whiteSpace=wrap;html=1;fillColor=#6a00ff;strokeColor=#3700CC;fontColor=#ffffff;" vertex="1" parent="1">
          <mxGeometry x="530" y="620" width="120" height="60" as="geometry" />
        </mxCell>
        <mxCell id="i_SbP_oBZpBZ_PZjNfhK-25" value="その他無線機器" style="rounded=0;whiteSpace=wrap;html=1;fillColor=#6a00ff;strokeColor=#3700CC;fontColor=#ffffff;" vertex="1" parent="1">
          <mxGeometry x="610" y="160" width="120" height="60" as="geometry" />
        </mxCell>
      </root>
    </mxGraphModel>
  </diagram>
</mxfile>
